<?xml version="1.0" encoding="UTF-8" standalone="no"?>
<svg
   xmlns:dc="http://purl.org/dc/elements/1.1/"
   xmlns:cc="http://creativecommons.org/ns#"
   xmlns:rdf="http://www.w3.org/1999/02/22-rdf-syntax-ns#"
   xmlns:svg="http://www.w3.org/2000/svg"
   xmlns="http://www.w3.org/2000/svg"
   id="svg2"
   preserveAspectRatio="xMidYMid meet"
   viewBox="0 0 307.000000 117.000000"
   height="117.000000pt"
   width="307.000000pt"
   version="1.0">
  <defs
     id="defs10" />
  <metadata
     id="metadata4">
Created by potrace 1.12, written by Peter Selinger 2001-2015
<rdf:RDF>
  <cc:Work
     rdf:about="">
    <dc:format>image/svg+xml</dc:format>
    <dc:type
       rdf:resource="http://purl.org/dc/dcmitype/StillImage" />
    <dc:title></dc:title>
  </cc:Work>
</rdf:RDF>
</metadata>
  <g
     id="g6"
     stroke="none"
     fill="#000000"
     transform="translate(0.000000,117.000000) scale(0.100000,-0.100000)" />
  <path
     id="text3366"
     d="m 29.725145,17.762867 c -19.007571,0 -25.9827095,8.980754 -25.9827095,18.484542 0,9.416593 4.5338055,12.642647 10.2883805,12.642647 -1.656611,-1.918195 -3.574572,-5.144483 -3.574572,-12.119738 0,-9.329402 5.318508,-12.293655 15.083867,-12.293655 1.133483,0 2.266966,1.18e-4 3.487628,0.174499 l 0,58.224136 c 0.02638,-0.0088 0.05687,-0.01508 0.09331,-0.01508 l 1.169314,0 c 0.142424,-0.02874 0.287936,-0.03104 0.431309,-0.05218 0.926139,-0.136237 1.397548,-0.23234 2.39659,-0.409288 1.533631,-0.271642 1.022561,-0.185454 2.262657,-0.384936 0.65369,-0.130987 1.319497,-0.169227 1.978024,-0.265514 0.362187,-0.05297 0.723602,-0.111042 1.085252,-0.167541 l 0,-55.53479 c 5.144249,1.133478 10.114356,2.092809 14.299497,2.092809 6.190544,0 9.241987,-2.267421 9.241987,-7.237291 0,-0.871907 -0.08706,-1.917848 -0.261456,-2.964135 -2.179769,0.959096 -5.492903,1.830773 -10.28839,1.830773 -7.236819,-10e-6 -12.381302,-2.005281 -21.710712,-2.005281 z m 149.133185,18.484542 0,31.845473 c -1.32054,5.856835 -3.44273,8.872694 -6.13639,8.872694 -3.74921,0 -3.92359,-5.580202 -3.92359,-7.847161 l 0,-29.644836 -8.71907,0 0,4.185033 c -1.65662,-3.574814 -5.31851,-4.620985 -8.10862,-4.620985 -11.85793,0 -16.56623,13.862855 -16.56623,24.587312 0,2.072849 0.1618,3.952771 0.45161,5.66334 -3.1209,5.462393 -7.8775,7.677297 -12.84903,7.677297 -4.96987,0 -9.15502,-2.092578 -10.02693,-11.334787 11.77074,-1.30786 18.9205,-7.149637 18.9205,-15.258375 0,-9.242212 -5.84166,-11.334787 -11.59625,-11.334787 -12.55546,0 -16.65377,14.648034 -16.65377,24.413396 0,14.909602 7.76032,20.140814 15.78186,20.140814 6.87534,0 13.38308,-4.535138 17.3535,-10.540565 2.55957,7.579523 8.26099,10.540565 13.52789,10.540565 5.49302,0 9.59098,-3.749202 11.3348,-8.283116 0.8719,4.359532 3.13897,8.283116 8.4576,8.283116 2.58427,0 5.99862,-0.71879 8.75212,-5.634351 l 0,26.909114 8.80602,-2.17977 0,-23.28003 c 2.09258,2.615719 4.70819,4.185037 8.54458,4.185037 8.98063,0 14.99691,-8.544574 14.99691,-22.931032 0,-14.822422 -6.36469,-21.623178 -14.47342,-21.623178 -3.92358,0 -6.8883,1.656621 -9.06807,3.923578 l 0,-6.713796 -8.80602,0 z m -87.069534,1.394816 c -2.87729,0 -4.44707,2.180117 -4.44707,4.447073 0,2.179766 1.394935,4.620991 4.185042,4.620991 0.523141,0 1.744156,-0.08708 2.267304,-0.697411 0.523142,2.528532 0.784368,5.928968 0.784368,9.155028 0,10.288501 -2.615261,21.79767 -9.764896,21.79767 -4.272344,0 -5.057524,-4.010771 -5.057524,-7.847161 l 0,-29.644836 -8.719069,0 0,27.987985 c 0,6.016154 -3.487505,9.504012 -6.800756,9.504012 -3.051668,0 -5.231437,-2.179766 -5.231437,-7.847161 l 0,-29.644836 -8.719074,0 0,30.603705 c 0,9.939733 5.493362,13.514553 12.294232,13.514553 3.574815,0 7.149524,-2.09246 9.41648,-6.800757 2.005384,4.446721 6.451883,6.800757 10.985797,6.800757 12.032314,0 16.130275,-16.740495 16.130275,-29.906288 0,-11.770749 -3.312894,-16.043324 -7.323672,-16.043324 z m 157.415724,1.395402 c -13.1658,0 -16.13028,14.560727 -16.13028,24.238898 0,15.083986 8.63223,20.315312 16.65377,20.315312 6.61318,0 12.75396,-4.545327 16.4868,-10.560854 2.81241,7.63028 8.99622,10.560854 14.7517,10.560854 9.4166,0 14.90937,-8.631762 14.90937,-22.931032 0,-1.395055 9.8e-4,-2.703027 -0.17391,-4.098081 3.83639,-1.918196 5.84166,-6.539537 6.80076,-10.375925 l -2.52877,0 c -0.61033,1.743812 -1.65673,4.359532 -4.96999,4.359532 -1.48223,-6.62649 -5.14413,-11.508704 -13.34005,-11.508704 -13.0786,0 -17.00218,14.037583 -17.00218,24.238898 0,2.066125 0.16727,3.942199 0.46725,5.652319 -2.91173,5.446679 -6.90408,8.036732 -12.5238,8.036732 -5.6674,0 -10.28839,-2.61572 -10.28839,-14.822416 0,-8.283118 1.91785,-18.484548 8.19558,-18.484548 3.05167,0 4.79548,1.918082 4.79548,4.620992 0,1.656626 -0.52325,3.749314 -1.48235,4.534035 0.78471,1.133481 1.83111,1.830777 3.22617,1.830777 2.26696,0 3.40067,-2.266618 3.40067,-5.143909 0,-6.800874 -3.92382,-10.46288 -11.24783,-10.46288 z M 121.96061,43.30962 c 2.79009,0 4.35953,1.831351 4.35953,6.190887 0,6.539307 -5.23109,11.421753 -13.42702,12.729613 0,-8.544688 2.96414,-18.9205 9.06749,-18.9205 z m 32.97477,0.523491 c 2.61573,0 4.35919,1.918081 5.1439,3.749084 l 0,19.879369 c 0,5.318628 -4.01089,9.504012 -7.5857,9.504012 -5.05706,0 -7.93412,-4.010771 -7.93412,-13.950506 0,-8.108739 2.87752,-19.181959 10.37592,-19.181959 z m 128.99585,0 c 2.44134,0 4.62075,1.220556 6.0158,4.620991 -1.91819,0.261572 -3.22617,1.569432 -3.22617,3.923583 0,3.31325 1.48247,5.231443 4.70853,5.231443 0,0.610335 0.087,1.220439 0.087,1.830774 0,11.073217 -2.87718,17.525674 -8.98052,17.525674 -3.92358,0 -8.45762,-2.703258 -8.45762,-14.038045 0,-8.544692 2.61619,-19.09442 9.85301,-19.09442 z m -90.25048,0.871907 c 3.83639,0 8.80602,3.487281 8.80602,15.60679 0,9.852546 -3.31347,17.699594 -9.06807,17.699594 -2.00538,0 -4.09772,-0.871557 -5.75435,-2.964139 l 0,-26.157207 c 1.39506,-2.615721 3.48787,-4.185038 6.0164,-4.185038 z m 27.18795,27.203036 c -3.22605,0 -5.75435,2.703024 -5.75435,5.84189 0,3.226055 2.5283,5.754933 5.75435,5.754933 3.13886,0 5.84189,-2.528878 5.84189,-5.754933 0,-3.138866 -2.70303,-5.84189 -5.84189,-5.84189 z M 38.444219,82.526885 c -0.0098,0.0017 -0.01935,0.0033 -0.02892,0.005 0.0088,0.0027 0.02052,0.0038 0.02892,0.0069 l 0,-0.01216 z m -5.33463,0.200579 c 0.01368,0.0085 0.02707,0.01745 0.04055,0.02609 -2.34e-4,-0.01486 -0.017,-0.02213 -0.04055,-0.02609 z"
     style="font-style:normal;font-weight:normal;font-size:40px;line-height:125%;font-family:sans-serif;letter-spacing:0px;word-spacing:0px;fill:#6818b1;fill-opacity:1;stroke:none;stroke-width:1px;stroke-linecap:butt;stroke-linejoin:miter;stroke-opacity:1" />
</svg>
